Coordinates
nRows=147
nColumns=2
inDegrees=yes
endheader
time	ankle_angle_r	
2.43734	  0.106812	
2.49984	  0.030518	
2.56234	  0.213623	
2.62483	  0.106812	
2.68733	  0.152588	
2.74982	  0.167847	
2.81232	  0.030518	
2.87482	  0.137329	
2.93731	  0.106812	
2.99981	  0.152588	
3.0623	  0.244141	
3.1248	  0.183105	
3.1873	  0.228882	
3.24979	  0.152588	
3.31229	  0.122070	
3.37478	  0.183105	
3.43728	  0.106812	
3.49978	  0.228882	
3.56227	  0.198364	
3.62477	  0.167847	
3.68726	  0.198364	
3.74976	  0.061035	
3.81226	  0.076294	
3.87475	  0.106812	
3.93725	  0.030518	
3.99974	  0.183105	
4.06224	  0.106812	
4.12474	  0.167847	
4.18723	  0.183105	
4.24973	  0.061035	
4.31222	  0.076294	
4.37472	  0.030518	
4.43722	  0.015259	
4.49971	  0.152588	
4.56221	  0.091553	
4.6247	  0.091553	
4.6872	  0.091553	
4.7497	  0.061035	
4.81219	  0.076294	
4.87469	  0.061035	
4.93718	  0.152588	
4.99968	  0.244141	
5.06218	  0.137329	
5.12467	  0.213623	
5.18717	  0.091553	
5.24966	  0.137329	
5.31216	  0.183105	
5.37466	  0.106812	
5.43715	  0.244141	
5.49965	  0.213623	
5.56214	  0.167847	
5.62464	  0.274658	
5.68714	  0.106812	
5.74963	  0.152588	
5.81213	  0.137329	
5.87462	  0.091553	
5.93712	  0.228882	
5.99962	  0.122070	
6.06211	  0.167847	
6.12461	  0.167847	
6.1871	  0.030518	
6.2496	  0.106812	
6.3121	  0.091553	
6.37459	  0.076294	
6.43709	  0.152588	
6.49958	  0.122070	
6.56208	  0.213623	
6.62458	  0.198364	
6.68707	  0.091553	
6.74957	  0.167847	
6.81206	  0.137329	
6.87456	  0.228882	
6.93706	  0.213623	
6.99955	  0.183105	
7.06205	  0.244141	
7.12454	  0.122070	
7.18704	  0.152588	
7.24954	  0.183105	
7.31203	  0.137329	
7.37453	  0.259399	
7.43702	  0.213623	
7.49952	  0.106812	
7.56202	  0.198364	
7.62451	  0.045776	
7.68701	  0.091553	
7.7495	  0.106812	
7.812	  0.015259	
7.8745	  0.183105	
7.93699	  0.122070	
7.99949	  0.167847	
8.06198	  0.152588	
8.12448	  0.030518	
8.18698	  0.122070	
8.24947	  0.045776	
8.31197	  0.000000	
8.37446	  0.152588	
8.43696	  0.091553	
8.49946	  0.152588	
8.56195	  0.091553	
8.62445	  0.030518	
8.68694	  0.152588	
8.74944	  0.106812	
8.81194	  0.183105	
8.87443	  0.228882	
8.93693	  0.183105	
8.99942	  0.228882	
9.06192	  0.137329	
9.12442	  0.152588	
9.18691	  0.183105	
9.24941	  0.152588	
9.3119	  0.259399	
9.3744	  0.213623	
9.4369	  0.183105	
9.49939	  0.259399	
9.56189	  0.091553	
9.62438	  0.167847	
9.68688	  0.137329	
9.74938	  0.076294	
9.81187	  0.198364	
9.87437	  0.076294	
9.93686	  0.122070	
9.99936	  0.137329	
10.0619	  0.015259	
10.1244	  0.106812	
10.1868	  0.030518	
10.2493	 -0.015259	
10.3118	  0.137329	
10.3743	  0.076294	
10.4368	  0.122070	
10.4993	  0.167847	
10.5618	  0.015259	
10.6243	  0.076294	
10.6868	  0.015259	
10.7493	  0.091553	
10.8118	  0.122070	
10.8743	  0.122070	
10.9368	  0.167847	
10.9993	  0.122070	
11.0618	  0.167847	
11.1243	  0.167847	
11.1868	  0.122070	
11.2493	  0.244141	
11.3118	  0.213623	
11.3743	  0.198364	
11.4368	  0.244141	
11.4993	  0.091553	
11.5618	  0.152588	
